inDegrees=yes
name=ik_S40_A13_T01
DataType=double
version=3
OpenSimVersion=4.3-2021-08-27-4bc7ad9
endheader
time	pelvis_tilt	pelvis_list	pelvis_rotation	pelvis_tx	pelvis_ty	pelvis_tz	hip_flexion_r	hip_adduction_r	hip_rotation_r	knee_angle_r	knee_angle_r_beta	ankle_angle_r	subtalar_angle_r	mtp_angle_r	hip_flexion_l	hip_adduction_l	hip_rotation_l	knee_angle_l	knee_angle_l_beta	ankle_angle_l	subtalar_angle_l	mtp_angle_l	lumbar_extension	lumbar_bending	lumbar_rotation	arm_flex_r	arm_add_r	arm_rot_r	elbow_flex_r	pro_sup_r	wrist_flex_r	wrist_dev_r	arm_flex_l	arm_add_l	arm_rot_l	elbow_flex_l	pro_sup_l	wrist_flex_l	wrist_dev_l
13.5399999999998	-0.5412779668817073	-0.05579265329672443	35.32269486028648	0	0.9399999999999999	0	27.9655754566069	-9.17505037852823	-8.254838099158555	31.54515891609687	0.550566886150736	0	0	0	27.9655754566069	-9.17505037852823	-8.254838099158555	31.54515891609687	0.550566886150736	0	0	0	0.2151422092085192	0.7158487767500212	5.452645186853832	71.76428346187731	-5.333169433523649	32.0626716895311	31.6965782514384	137.5165815113176	0	0	67.16465653127604	21.54321209295775	14.38634396929641	34.97494760066069	46.2140640212857	0	0
13.5599999999998	-0.5580009821827557	-0.08160839387478831	35.40941569684759	0	0.9399999999999999	0	27.97199427495435	-9.176075579228002	-8.256233199696895	31.55163491119438	0.5506799135875305	0	0	0	27.97199427495435	-9.176075579228002	-8.256233199696895	31.55163491119438	0.5506799135875305	0	0	0	0.186378691187093	0.7043825542323963	5.479096623525925	71.78814433990908	-5.344732627993156	31.73060204938897	32.28836983206553	137.7300644454459	0	0	67.43213857144895	21.66617207753129	14.48951780190793	34.90554632037637	46.05258015436394	0	0
13.5799999999998	-0.6034007143526275	-0.07335462082370468	35.58856627048344	0	0.9399999999999999	0	27.9840749478507	-9.178014014055609	-8.258867025592455	31.56376349969722	0.5508915973905247	0	0	0	27.9840749478507	-9.178014014055609	-8.258867025592455	31.56376349969722	0.5508915973905247	0	0	0	0.1537095958341562	0.7376994118191945	5.523319016383605	71.85630728283819	-5.374842642195409	30.99487897639785	33.01104851931694	138.2190942063966	0	0	67.68185227491917	21.88383320680051	14.383622103873	34.87632307913734	45.92260230531548	0	0
13.5999999999998	-0.6016146256010265	-0.0663566623776313	35.60512567111431	0	0.9399999999999999	0	27.99395057432077	-9.179594848714675	-8.261017334596678	31.57368853183014	0.5510648218796104	0	0	0	27.99395057432077	-9.179594848714675	-8.261017334596678	31.57368853183014	0.5510648218796104	0	0	0	0.1588708637986434	0.7422664754529587	5.515176771775944	72.00383539021929	-5.199752505062119	30.1042666532968	33.61394663054136	138.6069596114124	0	0	67.78279074921804	21.76179689871875	14.3576401870545	35.17281197888312	45.50488260909168	0	0
13.6199999999998	-0.632454713171022	-0.06121907315629165	35.6971088713119	0	0.9399999999999999	0	28.00091551114036	-9.18070588243684	-8.262530811363602	31.58070366923489	0.5511872591248032	0	0	0	28.00091551114036	-9.18070588243684	-8.262530811363602	31.58070366923489	0.5511872591248032	0	0	0	0.1364752010850843	0.7647189768741159	5.603122806354045	72.2435241051091	-5.278781358557183	29.26311877319917	34.10247448827033	138.6953800966394	0	0	67.82188326510513	21.96507378565599	14.37210033363086	35.60766910110836	45.4395559138576	0	0
13.6399999999998	-0.6211642660905775	-0.04790112831157423	35.75698844413793	0	0.9399999999999999	0	28.01347416081565	-9.182716131227922	-8.265266405895245	31.59330025379375	0.5514071109998611	0	0	0	28.01347416081565	-9.182716131227922	-8.265266405895245	31.59330025379375	0.5514071109998611	0	0	0	0.1529589871163239	0.768586711364867	5.607689215543119	72.18364523727199	-5.000096217085119	28.48364478141521	34.60759912013499	138.7817387521691	0	0	67.84824222480201	21.88638402947618	14.72275585000771	36.26517728608037	44.98608506046202	0	0
13.6599999999998	-0.6151952842585462	-0.08454029247636895	35.95623422844962	0	0.9399999999999999	0	28.0213788291795	-9.183975716949352	-8.266983702503634	31.60125208871957	0.5515458967008917	0	0	0	28.0213788291795	-9.183975716949352	-8.266983702503634	31.60125208871957	0.5515458967008917	0	0	0	0.1361728710092165	0.735537719091529	5.611623646206326	72.05353851139563	-4.681406674555839	28.00151360310266	34.7793055468246	137.9890699669438	0	0	67.8813421634362	22.09379705257288	14.9847579016938	36.79153138082626	44.75286936921344	0	0
